<svg width="163" height="163" viewBox="0 0 163 163" fill="none" xmlns="http://www.w3.org/2000/svg">
<path d="M69.2151 148.599C32.2175 141.825 7.6265 106.211 14.4002 69.2138C21.1739 32.2162 56.7874 7.62513 93.785 14.3988C130.783 21.1725 155.374 56.786 148.6 93.7836C141.826 130.781 106.213 155.372 69.2151 148.599Z" fill="#76AEFF"/>
<path d="M67.7674 53.6605L57.3974 110.301L81.1764 114.655" stroke="white" stroke-width="8.34242" stroke-miterlimit="10"/>
<path d="M97.7598 92.7118C106.726 94.3533 115.325 88.4158 116.966 79.4499C118.608 70.4841 112.67 61.8851 103.704 60.2436C94.7384 58.6021 86.1394 64.5396 84.4979 73.5055C82.8564 82.4714 88.7939 91.0703 97.7598 92.7118Z" stroke="white" stroke-width="8.34242" stroke-miterlimit="10"/>
<path d="M93.4729 43.9633L119.04 48.6442" stroke="white" stroke-width="8.34242" stroke-miterlimit="10"/>
<path d="M39.1729 76.8855C43.1588 77.6152 46.9816 74.9756 47.7114 70.9896C48.4412 67.0037 45.8015 63.1809 41.8156 62.4511C37.8297 61.7214 34.0068 64.361 33.2771 68.3469C32.5473 72.3329 35.187 76.1557 39.1729 76.8855Z" fill="white"/>
</svg>
