<svg width="166" height="166" viewBox="0 0 166 166" fill="none" xmlns="http://www.w3.org/2000/svg">
<path d="M68.6089 149.454C105.251 157.389 141.52 134.032 149.455 97.3901C157.39 60.7482 134.039 24.4805 97.3909 16.5443C60.743 8.60813 24.48 31.9662 16.5451 68.6082C8.61019 105.25 31.967 141.519 68.6089 149.454Z" fill="#60DC9E"/>
<path d="M103.323 62.0008L91.1756 118.097L67.6251 112.997" stroke="white" stroke-width="8.34242" stroke-miterlimit="10"/>
<path d="M60.7679 86.4493C51.8883 84.5264 46.2487 75.7692 48.1716 66.8895C50.0945 58.0098 58.8518 52.3703 67.7314 54.2932C76.6111 56.2161 82.2507 64.9733 80.3277 73.853C78.4048 82.7327 69.6476 88.3722 60.7679 86.4493Z" stroke="white" stroke-width="8.34242" stroke-miterlimit="10"/>
<path d="M114.045 98.4644C107.199 96.982 102.851 90.2308 104.334 83.3853C105.816 76.5397 112.567 72.192 119.413 73.6745C126.258 75.1569 130.606 81.9081 129.124 88.7536C127.641 95.5992 120.89 99.9469 114.045 98.4644Z" stroke="white" stroke-width="8.34242" stroke-miterlimit="10"/>
<path d="M131.016 65.4317L137.148 66.7598L134.932 53.0563L128.805 51.7296L131.016 65.4317Z" fill="white"/>
<path d="M121.047 63.2738L127.18 64.6018L124.963 50.8983L118.837 49.5716L121.047 63.2738Z" fill="white"/>
</svg>
