<svg width="177" height="121" viewBox="0 0 177 121" fill="none" xmlns="http://www.w3.org/2000/svg">
<path d="M7.26873 2.72176V3.629H10.9192V2.72176H14.5698V3.629H18.2203V2.72176H21.8708V3.629H25.5213V2.72176H29.1728V3.629H32.8233V2.72176H36.4738V3.629H40.1243V2.72176H43.7748V3.629H47.4254V2.72176H51.0759V3.629H54.7264V2.72176H58.3769V3.629H62.0274V2.72176H65.6779V3.629H69.3294V2.72176H72.9799V3.629H76.6304V2.72176H80.281V3.629H83.9315V2.72176H87.582V3.629H91.2325V2.72176H94.883V3.629H98.5335V2.72176H102.184V3.629H105.835V2.72176H109.485V3.629H113.137V2.72176H116.787V3.629H120.438V2.72176H124.088V3.629H127.739V2.72176H131.389V3.629H135.04V2.72176H138.69V3.629H142.341V2.72176H145.991V3.629H149.642V2.72176H153.293V3.629H156.944V2.72176H160.594V3.629H164.245V2.72176H167.895V3.629H171.546V2.72176H173.371C174.874 2.72177 176.093 3.94031 176.093 5.44348V7.30596H175.186V11.0309H176.093V14.7559H175.186V18.4809H176.093V22.2049H175.186V25.9299H176.093V29.6548H175.186V33.3798H176.093V37.1048H175.186V40.8298H176.093V44.5547H175.186V48.2787H176.093V52.0037H175.186V55.7287H176.093V59.4536H175.186V63.1786H176.093V66.9036H175.186V70.6286H176.093V74.3535H175.186V78.0775H176.093V81.8025H175.186V85.5275H176.093V89.2525H175.186V92.9774H176.093V96.7024H175.186V100.427H176.093V104.151H175.186V107.876H176.093V111.601H175.186V115.326H176.093V117.189L176.079 117.467C175.94 118.84 174.78 119.91 173.371 119.911H171.546V119.003H167.895V119.911H164.245V119.003H160.594V119.911H156.944V119.003H153.293V119.911H149.642V119.003H145.991V119.911H142.341V119.003H138.69V119.911H135.04V119.003H131.389V119.911H127.739V119.003H124.088V119.911H120.438V119.003H116.787V119.911H113.137V119.003H109.485V119.911H105.835V119.003H102.184V119.911H98.5335V119.003H94.883V119.911H91.2325V119.003H87.582V119.911H83.9315V119.003H80.281V119.911H76.6304V119.003H72.9799V119.911H69.3294V119.003H65.6779V119.911H62.0274V119.003H58.3769V119.911H54.7264V119.003H51.0759V119.911H47.4254V119.003H43.7748V119.911H40.1243V119.003H36.4738V119.911H32.8233V119.003H29.1728V119.911H25.5213V119.003H21.8708V119.911H18.2203V119.003H14.5698V119.911H10.9192V119.003H7.26873V119.911H5.44347C3.9403 119.91 2.72176 118.692 2.72175 117.189V115.326H3.62899V111.601H2.72175V107.876H3.62899V104.151H2.72175V100.427H3.62899V96.7024H2.72175V92.9774H3.62899V89.2525H2.72175V85.5275H3.62899V81.8025H2.72175V78.0775H3.62899V74.3535H2.72175V70.6286H3.62899V66.9036H2.72175V63.1786H3.62899V59.4536H2.72175V55.7287H3.62899V52.0037H2.72175V48.2787H3.62899V44.5547H2.72175V40.8298H3.62899V37.1048H2.72175V33.3798H3.62899V29.6548H2.72175V25.9299H3.62899V22.2049H2.72175V18.4809H3.62899V14.7559H2.72175V11.0309H3.62899V7.30596H2.72175V5.44348C2.72176 3.94031 3.94031 2.72177 5.44347 2.72176H7.26873Z" fill="#3491FA" fill-opacity="0.2"/>
<path d="M7.26873 2.72176V3.629H10.9192V2.72176H14.5698V3.629H18.2203V2.72176H21.8708V3.629H25.5213V2.72176H29.1728V3.629H32.8233V2.72176H36.4738V3.629H40.1243V2.72176H43.7748V3.629H47.4254V2.72176H51.0759V3.629H54.7264V2.72176H58.3769V3.629H62.0274V2.72176H65.6779V3.629H69.3294V2.72176H72.9799V3.629H76.6304V2.72176H80.281V3.629H83.9315V2.72176H87.582V3.629H91.2325V2.72176H94.883V3.629H98.5335V2.72176H102.184V3.629H105.835V2.72176H109.485V3.629H113.137V2.72176H116.787V3.629H120.438V2.72176H124.088V3.629H127.739V2.72176H131.389V3.629H135.04V2.72176H138.69V3.629H142.341V2.72176H145.991V3.629H149.642V2.72176H153.293V3.629H156.944V2.72176H160.594V3.629H164.245V2.72176H167.895V3.629H171.546V2.72176H173.371C174.874 2.72177 176.093 3.94031 176.093 5.44348V7.30596H175.186V11.0309H176.093V14.7559H175.186V18.4809H176.093V22.2049H175.186V25.9299H176.093V29.6548H175.186V33.3798H176.093V37.1048H175.186V40.8298H176.093V44.5547H175.186V48.2787H176.093V52.0037H175.186V55.7287H176.093V59.4536H175.186V63.1786H176.093V66.9036H175.186V70.6286H176.093V74.3535H175.186V78.0775H176.093V81.8025H175.186V85.5275H176.093V89.2525H175.186V92.9774H176.093V96.7024H175.186V100.427H176.093V104.151H175.186V107.876H176.093V111.601H175.186V115.326H176.093V117.189L176.079 117.467C175.94 118.84 174.78 119.91 173.371 119.911H171.546V119.003H167.895V119.911H164.245V119.003H160.594V119.911H156.944V119.003H153.293V119.911H149.642V119.003H145.991V119.911H142.341V119.003H138.69V119.911H135.04V119.003H131.389V119.911H127.739V119.003H124.088V119.911H120.438V119.003H116.787V119.911H113.137V119.003H109.485V119.911H105.835V119.003H102.184V119.911H98.5335V119.003H94.883V119.911H91.2325V119.003H87.582V119.911H83.9315V119.003H80.281V119.911H76.6304V119.003H72.9799V119.911H69.3294V119.003H65.6779V119.911H62.0274V119.003H58.3769V119.911H54.7264V119.003H51.0759V119.911H47.4254V119.003H43.7748V119.911H40.1243V119.003H36.4738V119.911H32.8233V119.003H29.1728V119.911H25.5213V119.003H21.8708V119.911H18.2203V119.003H14.5698V119.911H10.9192V119.003H7.26873V119.911H5.44347C3.9403 119.91 2.72176 118.692 2.72175 117.189V115.326H3.62899V111.601H2.72175V107.876H3.62899V104.151H2.72175V100.427H3.62899V96.7024H2.72175V92.9774H3.62899V89.2525H2.72175V85.5275H3.62899V81.8025H2.72175V78.0775H3.62899V74.3535H2.72175V70.6286H3.62899V66.9036H2.72175V63.1786H3.62899V59.4536H2.72175V55.7287H3.62899V52.0037H2.72175V48.2787H3.62899V44.5547H2.72175V40.8298H3.62899V37.1048H2.72175V33.3798H3.62899V29.6548H2.72175V25.9299H3.62899V22.2049H2.72175V18.4809H3.62899V14.7559H2.72175V11.0309H3.62899V7.30596H2.72175V5.44348C2.72176 3.94031 3.94031 2.72177 5.44347 2.72176H7.26873Z" stroke="#147DFF" stroke-width="1.80861" stroke-dasharray="3.62 3.62"/>
<circle cx="3.629" cy="3.629" r="3.17684" fill="white" stroke="#147DFF" stroke-width="0.904306"/>
</svg>
