<svg width="64" height="66" viewBox="0 0 64 66" fill="none" xmlns="http://www.w3.org/2000/svg">
<g filter="url(#filter0_ddd_199_11761)">
<path d="M51.9427 27.9795C51.9427 38.9959 43.0122 47.9264 31.9959 47.9264C27.9313 47.9264 19.9041 47.9264 15.3701 47.9264C13.534 47.9264 12.0491 46.4433 12.0491 44.6073C12.0491 39.9372 12.0491 31.5941 12.0491 27.9795C12.0491 16.9632 20.9796 8.03273 31.9959 8.03273C43.0122 8.03273 51.9427 16.9632 51.9427 27.9795Z" fill="white"/>
<path d="M31.9956 8.44848C42.7823 8.44848 51.5272 17.1926 51.5273 27.9792C51.5273 38.766 42.7824 47.511 31.9956 47.511H15.3702C13.7635 47.511 12.465 46.2136 12.4648 44.6075V27.9792C12.465 17.1927 21.209 8.44865 31.9956 8.44848Z" stroke="#C1C5CC" stroke-width="0.827731"/>
</g>
<path d="M17.0358 27.9795C17.0358 19.7173 23.7337 13.0194 31.9959 13.0194C40.2582 13.0194 46.956 19.7173 46.956 27.9795C46.956 36.2418 40.2582 42.9397 31.9959 42.9397C23.7337 42.9397 17.0358 36.2418 17.0358 27.9795Z" fill="#147DFF"/>
<path d="M34.1689 21.9151V34.0041H31.613V24.3412H31.5421L28.7737 26.0766V23.8099L31.7664 21.9151H34.1689Z" fill="white"/>
<defs>
<filter id="filter0_ddd_199_11761" x="0" y="0" width="63.9918" height="66" filterUnits="userSpaceOnUse" color-interpolation-filters="sRGB">
<feFlood flood-opacity="0" result="BackgroundImageFix"/>
<feColorMatrix in="SourceAlpha" type="matrix" values="0 0 0 0 0 0 0 0 0 0 0 0 0 0 0 0 0 0 127 0" result="hardAlpha"/>
<feOffset dy="6"/>
<feGaussianBlur stdDeviation="6"/>
<feComposite in2="hardAlpha" operator="out"/>
<feColorMatrix type="matrix" values="0 0 0 0 0 0 0 0 0 0 0 0 0 0 0 0 0 0 0.02 0"/>
<feBlend mode="normal" in2="BackgroundImageFix" result="effect1_dropShadow_199_11761"/>
<feColorMatrix in="SourceAlpha" type="matrix" values="0 0 0 0 0 0 0 0 0 0 0 0 0 0 0 0 0 0 127 0" result="hardAlpha"/>
<feOffset dy="2"/>
<feGaussianBlur stdDeviation="5"/>
<feComposite in2="hardAlpha" operator="out"/>
<feColorMatrix type="matrix" values="0 0 0 0 0 0 0 0 0 0 0 0 0 0 0 0 0 0 0.02 0"/>
<feBlend mode="normal" in2="effect1_dropShadow_199_11761" result="effect2_dropShadow_199_11761"/>
<feColorMatrix in="SourceAlpha" type="matrix" values="0 0 0 0 0 0 0 0 0 0 0 0 0 0 0 0 0 0 127 0" result="hardAlpha"/>
<feOffset dy="1"/>
<feGaussianBlur stdDeviation="1"/>
<feComposite in2="hardAlpha" operator="out"/>
<feColorMatrix type="matrix" values="0 0 0 0 0.00191556 0 0 0 0 0.00191556 0 0 0 0 0.00191556 0 0 0 0.04 0"/>
<feBlend mode="normal" in2="effect2_dropShadow_199_11761" result="effect3_dropShadow_199_11761"/>
<feBlend mode="normal" in="SourceGraphic" in2="effect3_dropShadow_199_11761" result="shape"/>
</filter>
</defs>
</svg>
