<svg width="88" height="328" viewBox="0 0 88 328" fill="none" xmlns="http://www.w3.org/2000/svg">
<g clip-path="url(#clip0_164_11733)">
<g filter="url(#filter0_d_164_11733)">
<path d="M55 12H33C23.6112 12 16 19.6112 16 29V291C16 300.389 23.6112 308 33 308H55C64.3888 308 72 300.389 72 291V29C72 19.6112 64.3888 12 55 12Z" fill="white"/>
<path d="M55 12H33C23.6112 12 16 19.6112 16 29V291C16 300.389 23.6112 308 33 308H55C64.3888 308 72 300.389 72 291V29C72 19.6112 64.3888 12 55 12Z" stroke="#E6E6E6"/>
<path d="M26 37C26 32.0294 30.0294 28 35 28H53C57.9706 28 62 32.0294 62 37V55C62 59.9706 57.9706 64 53 64H35C30.0294 64 26 59.9706 26 55V37Z" fill="#526D87" fill-opacity="0.1"/>
<path d="M35.9859 39.7434C35.595 38.6505 36.6508 37.5938 37.7437 37.9847L51.2633 42.8225C52.4449 43.2459 52.498 44.8981 51.3463 45.3968L50.5934 45.722C47.5118 47.0538 45.0542 49.5115 43.7223 52.5931L43.398 53.345C42.8998 54.4978 41.2471 54.4443 40.8238 53.262L35.9859 39.7434ZM37.357 39.0686C37.1782 39.0046 37.0049 39.1778 37.0689 39.3567L41.9059 52.8753C41.9777 53.075 42.2581 53.0839 42.3424 52.8889L42.6666 52.138C44.1147 48.7875 46.7868 46.1144 50.1373 44.6663L50.8893 44.3411C51.0837 44.2566 51.075 43.9775 50.8756 43.9056L37.357 39.0686Z" fill="#0E1014"/>
<path d="M32.25 71.75H55.75" stroke="#C1C5CC" stroke-width="0.5" stroke-linecap="round"/>
<path d="M50 90C51.1046 90 52 90.8954 52 92V104C52 105.105 51.1046 106 50 106H38C36.8954 106 36 105.105 36 104V92C36 90.8954 36.8954 90 38 90H50ZM38 91.1504C37.5306 91.1504 37.1504 91.5306 37.1504 92V104C37.1504 104.469 37.5306 104.85 38 104.85H50C50.4694 104.85 50.8496 104.469 50.8496 104V92C50.8496 91.5306 50.4694 91.1504 50 91.1504H38ZM44.5703 97.2227H48V98.373H44.5703V102H43.4199V98.373H40V97.2227H43.4199V94H44.5703V97.2227Z" fill="#2F3640"/>
<path d="M40.4443 137.294H47.7383V134H48.8887V137.294H52V138.444H48.8887V145.738H52V146.889H48.8887V150H47.7383V146.889H40.4443V150H39.2939V146.889H36V145.738H39.2939V138.444H36V137.294H39.2939V134H40.4443V137.294ZM40.4443 145.738H47.7383V138.444H40.4443V145.738Z" fill="#2F3640"/>
<path d="M50 178.001C51.1045 178.001 52 178.896 52 180.001V183.001H50.8496V180.001C50.8496 179.531 50.4694 179.151 50 179.151H44.5752V192.854H49V194.005H39V192.854H43.4248V179.151H38C37.5306 179.151 37.1504 179.531 37.1504 180.001V183.001H36V180.001C36 178.896 36.8955 178.001 38 178.001H50Z" fill="#2F3640"/>
<path d="M46.7842 221.878C47.4426 221.219 48.5105 221.219 49.1689 221.878L52.2432 224.951C52.9014 225.609 52.9013 226.677 52.2432 227.336L42.6963 236.883C41.4418 238.137 39.7052 238.786 37.9355 238.663L36.8877 238.591C36.1601 238.539 35.5812 237.96 35.5303 237.232L35.457 236.184C35.334 234.415 35.9832 232.678 37.2373 231.424L46.7842 221.878ZM38.0508 232.237C37.0319 233.256 36.5044 234.668 36.6045 236.105L36.6777 237.152C36.6887 237.308 36.8129 237.432 36.9688 237.443L38.0146 237.516C39.4523 237.617 40.8637 237.088 41.8828 236.069L48.4883 229.464L44.6562 225.632L38.0508 232.237ZM48.3555 222.691C48.1461 222.482 47.807 222.482 47.5977 222.691L45.4697 224.818L49.3018 228.65L51.4297 226.522C51.6387 226.313 51.6388 225.974 51.4297 225.764L48.3555 222.691Z" fill="#2F3640"/>
<path d="M32.25 255.75H55.75" stroke="#C1C5CC" stroke-width="0.5" stroke-linecap="round"/>
<path d="M42.9678 273.588C43.6579 273.626 44.3038 273.949 44.749 274.483L45.8535 275.809C45.992 275.975 46.1898 276.08 46.4023 276.103L46.4941 276.109H49.8936C51.2868 276.109 52.416 277.238 52.416 278.632V287.894C52.4158 289.287 51.2867 290.417 49.8936 290.417H38.1055C36.7127 290.416 35.5832 289.287 35.583 287.894V276.106C35.5832 274.713 36.7126 273.584 38.1055 273.584H42.8291L42.9678 273.588ZM36.7334 287.894C36.7336 288.652 37.3478 289.267 38.1055 289.267H49.8936C50.6516 289.267 51.2664 288.652 51.2666 287.894V281.326H36.7334V287.894ZM38.1055 274.734C37.3478 274.734 36.7335 275.348 36.7334 276.106V280.175H51.2666V278.632C51.2666 277.873 50.6517 277.258 49.8936 277.258H46.4941C45.9058 277.258 45.3474 276.997 44.9707 276.545L43.8662 275.219C43.6098 274.912 43.2296 274.734 42.8291 274.734H38.1055Z" fill="#2F3640"/>
</g>
</g>
<defs>
<filter id="filter0_d_164_11733" x="0.5" y="0.5" width="87" height="327" filterUnits="userSpaceOnUse" color-interpolation-filters="sRGB">
<feFlood flood-opacity="0" result="BackgroundImageFix"/>
<feColorMatrix in="SourceAlpha" type="matrix" values="0 0 0 0 0 0 0 0 0 0 0 0 0 0 0 0 0 0 127 0" result="hardAlpha"/>
<feOffset dy="4"/>
<feGaussianBlur stdDeviation="7.5"/>
<feComposite in2="hardAlpha" operator="out"/>
<feColorMatrix type="matrix" values="0 0 0 0 0 0 0 0 0 0 0 0 0 0 0 0 0 0 0.05 0"/>
<feBlend mode="normal" in2="BackgroundImageFix" result="effect1_dropShadow_164_11733"/>
<feBlend mode="normal" in="SourceGraphic" in2="effect1_dropShadow_164_11733" result="shape"/>
</filter>
<clipPath id="clip0_164_11733">
<rect width="88" height="328" fill="white"/>
</clipPath>
</defs>
</svg>
