<svg width="163" height="163" viewBox="0 0 163 163" fill="none" xmlns="http://www.w3.org/2000/svg">
<path d="M69.1278 148.513C106.077 155.335 141.691 130.822 148.513 93.8721C155.334 56.9225 130.827 21.3101 93.8714 14.4874C56.9158 7.66471 21.3082 32.1788 14.4867 69.1285C7.66507 106.078 32.1781 141.692 69.1278 148.513Z" fill="#FF9BBA"/>
<path d="M130.913 85.0218L110.474 81.2484" stroke="white" stroke-width="8.34242" stroke-miterlimit="10"/>
<path d="M68.3807 109.923L92.129 114.308L100.694 67.9122" stroke="white" stroke-width="8.34242" stroke-miterlimit="10"/>
<path d="M80.3444 69.1226C81.9717 60.3078 76.148 51.8468 67.3332 50.2195C58.5184 48.5921 50.0574 54.4158 48.43 63.2306" stroke="white" stroke-width="8.34242" stroke-miterlimit="10"/>
<path d="M62.9053 72.4696C59.5557 71.8512 57.3417 68.6345 57.9601 65.2849C58.5785 61.9352 61.7952 59.7211 65.1448 60.3395C68.4944 60.9579 70.7085 64.1747 70.0901 67.5243C69.4717 70.8739 66.255 73.088 62.9053 72.4696Z" fill="white"/>
</svg>
